<svg height="32" viewBox="0 0 32 32" width="32" xmlns="http://www.w3.org/2000/svg"><g fill="none" stroke="#646464" stroke-linecap="round" stroke-linejoin="round" stroke-width="2"><path d="m10.964844 2 9.578125 24.707031zm13.035156 19.5a3.75 3.75 0 0 0 -3.75 3.75 3.75 3.75 0 0 0 3.75 3.75 3.75 3.75 0 0 0 3.75-3.75 3.75 3.75 0 0 0 -3.75-3.75z"/><path d="m21.035156 2-9.578125 24.707031zm-13.035156 19.5a3.75 3.75 0 0 1 3.75 3.75 3.75 3.75 0 0 1 -3.75 3.75 3.75 3.75 0 0 1 -3.75-3.75 3.75 3.75 0 0 1 3.75-3.75z"/></g></svg>