<svg height="32" viewBox="0 0 32 32" width="32" xmlns="http://www.w3.org/2000/svg"><path d="m-10.363961 11.435029h4v4h-4z" fill="#2ebf88" transform="matrix(.70710678 -.70710678 .70710678 .70710678 0 0)"/><g fill="#2e4bb8"><path d="m10.261963 21.261963-3.7142323.588276-1.707245-3.350657 2.6590964-2.659096 3.3506569 1.707245z" transform="translate(.154638 4.154638)"/><path d="m10.261963 21.261963-3.7142323.588276-1.707245-3.350657 2.6590964-2.659096 3.3506569 1.707245z" transform="matrix(.94841165 .31704156 -.31704156 .94841165 14.591134 1.598484)"/><path d="m10.261963 21.261963-3.7142323.588276-1.707245-3.350657 2.6590964-2.659096 3.3506569 1.707245z" transform="matrix(.82883274 .55949646 -.55949646 .82883274 27.811509 3.655378)"/></g><circle cx="11" cy="9" fill="#d74bb8" r="2.5"/><circle cx="16" cy="14" fill="#d74bb8" r="2.5"/><g fill="#d74b42"><path d="m24 7.0000001-4.098076-3.6339748 5.196152-1.7320507z"/><path d="m24 7.0000001-4.098076-3.6339748 5.196152-1.7320507z" transform="matrix(.80941203 .58724115 -.58724115 .80941203 8.232488 -5.061182)"/><path d="m24 7.0000001-4.098076-3.6339748 5.196152-1.7320507z" transform="matrix(.46196596 .88689766 -.88689766 .46196596 20.854712 -16.412743)"/></g></svg>