<svg height="32" viewBox="0 0 32 32" width="32" xmlns="http://www.w3.org/2000/svg"><path d="m16 0a16 16 0 0 0 -16 16 16 16 0 0 0 16 16 16 16 0 0 0 16-16 16 16 0 0 0 -16-16zm-.169922 5.7910156c.868056 0 1.628255.1141493 2.279297.3398438.659722.2170139 1.211588.5195311 1.654297.9101562.946181.8420141 1.417969 1.9457462 1.417969 3.3085934 0 .703126-.146268 1.331163-.441407 1.886719-.3125.581598-.864366 1.263672-1.654296 2.044922l-1.146485 1.119141c-.607639.581597-.988281 1.050347-1.144531 1.40625-.164931.338541-.248047.700086-.248047 1.082031v1.652344h-2.474609v-1.445313c0-.685764.130208-1.318793.390625-1.900391.286458-.598958.786241-1.254991 1.498047-1.966796l1.171874-1.158204c.251737-.251736.473091-.491102.664063-.716796.199653-.234375.347873-.442709.443359-.625.208334-.381945.3125-.788629.3125-1.222657 0-.407986-.078125-.7645395-.234375-1.068359-.15625-.3125001-.361545-.5779079-.613281-.7949219-.564236-.4774307-1.314453-.7148437-2.251953-.7148437-.720486 0-1.454644.1462673-2.201172.4414062-.390625.1475695-.789279.3348524-1.197265.5605469-.399306.2256945-.810981.486111-1.236329.78125v-2.4472656c.833334-.5034724 1.656684-.8730468 2.472657-1.1074219.78125-.2430556 1.627604-.3652344 2.539062-.3652344zm-.480469 16.4589844c.538195 0 .988933.182292 1.353516.546875s.546875.838324.546875 1.419922c0 .590278-.182292 1.067057-.546875 1.431641-.373264.373263-.820963.560546-1.341797.560546-.538194 0-.988932-.182291-1.353516-.546875-.373263-.373264-.560546-.855034-.560546-1.445312 0-.581598.182291-1.055339.546875-1.419922.147569-.147569.334852-.272786.560547-.376953.234375-.112847.499782-.169922.794921-.169922z" fill="#b2b2b2" stroke-width="4"/></svg>