<svg height="256" viewBox="0 0 67.733334 67.733334" width="256" xmlns="http://www.w3.org/2000/svg" xmlns:xlink="http://www.w3.org/1999/xlink"><filter id="a" color-interpolation-filters="sRGB" height="1.009003" width="1.00859" x="0" y="0"><feFlood flood-color="#1caf38" result="flood"/><feComposite in="flood" in2="SourceGraphic" operator="in" result="composite1"/><feGaussianBlur in="composite1" result="blur" stdDeviation="0"/><feOffset dx=".5" dy=".5" result="offset"/><feComposite in="SourceGraphic" in2="offset" operator="over" result="composite2"/></filter><filter id="b" color-interpolation-filters="sRGB" height="1.009003" width="1.023622" x="0" y="0"><feFlood flood-color="#1caf38" result="flood"/><feComposite in="flood" in2="SourceGraphic" operator="in" result="composite1"/><feGaussianBlur in="composite1" result="blur" stdDeviation="0"/><feOffset dx=".5" dy=".5" result="offset"/><feComposite in="SourceGraphic" in2="offset" operator="over" result="composite2"/></filter><filter id="c" color-interpolation-filters="sRGB" height="1.009003" width="1.023622" x="0" y="0"><feFlood flood-color="#1caf38" result="flood"/><feComposite in="flood" in2="SourceGraphic" operator="in" result="composite1"/><feGaussianBlur in="composite1" result="blur" stdDeviation="0"/><feOffset dx=".5" dy=".5" result="offset"/><feComposite in="SourceGraphic" in2="offset" operator="over" result="composite2"/></filter><filter id="d" color-interpolation-filters="sRGB" height="1.008749" width="1.008749" x="0" y="0"><feFlood flood-color="#b60000" result="flood"/><feComposite in="flood" in2="SourceGraphic" operator="in" result="composite1"/><feGaussianBlur in="composite1" result="blur" stdDeviation="0"/><feOffset dx=".5" dy=".5" result="offset"/><feComposite in="SourceGraphic" in2="offset" operator="over" result="composite2"/></filter><g fill="#00c93f"><path d="m1486.9583 5.2916663-.015 55.5388517 58.2083-26.458331z" filter="url(#a)" transform="matrix(1 0 0 1.0198282 0 -.104924)"/><path d="m1561.0566 5.2916665-.015 55.5388515 21.1667-.07419v-55.4646635z" filter="url(#b)" transform="matrix(1 0 0 1.0198282 0 -.104924)"/><path d="m1595.9666 5.2916665-.015 55.5388515 21.1667-.07419v-55.4646635z" filter="url(#c)" transform="matrix(1 0 0 1.0198282 0 -.104924)"/></g><path d="m1635.125 5.291667h57.149948v57.149998h-57.149948z" fill="#dd2f2f" filter="url(#d)"/><g style="fill:none;stroke:#b2b2b2;stroke-width:2.5;stroke-linecap:round;stroke-linejoin:round;stroke-miterlimit:8"><path d="m1707.0916 10.583333h7.4083v-7.4083334"/><path d="m1722.9666 26.458332h7.4083v-7.408333"/><path d="m1737.7832 26.458332h-7.4083v7.408333"/><path d="m1738.8416 26.458332h7.4083v-7.408333"/><path d="m1753.6582 26.458332h-7.4083v7.408333"/><path d="m1738.8416 42.333332h7.4083v-7.408333"/><path d="m1753.6582 42.333332h-7.4083v7.408333"/><path d="m1722.9666 42.333332h7.4083v-7.408333"/><path d="m1737.7832 42.333332h-7.4083v7.408333"/><path d="m1707.0916 57.149998h7.4083v7.408334"/><path d="m1768.4749 57.149998h-7.4083v7.408334"/><path d="m1768.4749 10.583333h-7.4083v-7.408334"/><path d="m1707.0916 26.458332h7.4083"/><path d="m1707.0916 42.33333h7.4083"/><path d="m1768.4749 42.33333h-7.4083"/><path d="m1768.4749 26.458332h-7.4083"/><path d="m1730.3749 10.583333v-7.408333"/><path d="m1746.2499 3.175v7.408333"/><path d="m1746.2499 64.55833v-7.408333"/><path d="m1730.3749 64.55833v-7.408333"/></g></svg>