<svg height="32" viewBox="0 0 32 32" width="32" xmlns="http://www.w3.org/2000/svg"><g fill="none" stroke="#646464" stroke-linecap="round" stroke-linejoin="round" stroke-width="2"><path d="m15 4c-.553999 0-1 .4460006-1 1v1.9550781a9.2857141 9.2857141 0 0 0 -2.996094 1.21875l-1.3671872-1.3671875c-.3917368-.3917367-1.0223258-.3917367-1.4140626 0l-1.4160156 1.4160156c-.3917367.3917368-.3917367 1.0223258 0 1.4140626l1.3671875 1.3671872a9.2857141 9.2857141 0 0 0 -.9414062 1.996094h-2.2324219c-.5539994 0-1 .446001-1 1v2c0 .553999.4460006 1 1 1h1.7851562a9.2857141 9.2857141 0 0 0 .890625 3.082031l-1.5761718 1.574219c-.3917368.391737-.3917368 1.022326 0 1.414062l1.4160156 1.414063c.3917368.391737 1.0223257.391737 1.4140625 0l1.2617185-1.261719a9.2857141 9.2857141 0 0 0 3.808594 1.822266v1.955078c0 .553999.446001 1 1 1h2c.553999 0 1-.446001 1-1v-1.955078a9.2857141 9.2857141 0 0 0 2.996094-1.21875l1.367187 1.367187c.391737.391737 1.022326.391737 1.414063 0l1.416015-1.416015c.391737-.391737.391737-1.022326 0-1.414063l-1.367187-1.367187a9.2857141 9.2857141 0 0 0 1.388672-3.996094h1.785156c.553999 0 1-.446001 1-1v-2c0-.553999-.446001-1-1-1h-2.214844a9.2857141 9.2857141 0 0 0 -1.550781-2.820312l1.25-1.2500005c.391737-.3917368.391737-1.0223257 0-1.4140625l-1.414063-1.4160156c-.391736-.3917368-1.022325-.3917368-1.414062 0l-1.564453 1.5664062a9.2857141 9.2857141 0 0 0 -2.091797-.7304687v-1.9355469c0-.5539994-.446001-1-1-1z"/><circle cx="16" cy="16" r="3.333333"/></g></svg>