<svg height="1052.362205" width="744.094488" xmlns="http://www.w3.org/2000/svg"><path d="m596.25 745.61218a29 12.25 0 1 1 -58 0 29 12.25 0 1 1 58 0z" transform="matrix(1.2543104 0 0 1.132653 -152.88254 -93.532738)"/><path d="m547.71999 744.59734c-8.32369-9.26332-12.65492-24.75571-9.78141-34.98723 4.33906-15.44977 19.19636-21.42162 34.93149-14.04057 7.68012 3.60262 7.85354 3.59071 10.21981-.70111 3.72244-6.75157 5.6827-4.10025 8.69403 11.75896l2.77468 14.6129-13.1747 2.5016c-7.24611 1.37587-13.83446 2.00807-14.64086 1.40494-.80637-.60317-.0787-3.50697 1.617-6.45289 2.86216-4.97237 2.82717-5.54772-.48789-8.02736-5.29376-3.95966-14.58396-1.51542-17.54525 4.61613-2.72969 5.65202-.92858 19.29514 3.88145 29.40117 3.93726 8.27236.9873 8.23302-6.48835-.0865z" fill="#008000"/></svg>