<svg height="32" viewBox="0 0 32 32" width="32" xmlns="http://www.w3.org/2000/svg"><g fill="none" stroke="#646464" stroke-linecap="round" stroke-linejoin="round"><path d="m5 1v6l-4 4"/><path d="m5 7 4 3 6-3-2-6"/><path d="m1 11 3 6 7 1-2-8"/><path d="m15 7 2 5 6-3-3-4 2-4"/><path d="m17 12v8l-6-2 2 8-5 5-7-6"/><path d="m4 17-3 8"/><path d="m23 9 4 2 4-3"/><path d="m17 20 6 4 4-4v-9"/><path d="m27 20 4 5"/><path d="m23 24v7"/><path d="m13 26 2 5"/></g><g fill="#646464"><circle cx="26.5" cy="4.5" r="1.5"/><circle cx="22" cy="16" r="1.5"/><circle cx="28" cy="28" r="1.5"/><circle cx="18" cy="26" r="1.5"/><circle cx="7" cy="24" r="1.5"/><circle cx="6" cy="13" r="1.5"/><circle cx="9" cy="4" r="1.5"/><circle cx="14" cy="13" r="1.5"/><circle cx="30" cy="16" r="1.5"/></g></svg>